<mxfile host="app.diagrams.net" modified="2024-07-14T15:32:31.220Z" agent="Mozilla/5.0 (Windows NT 10.0; Win64; x64) AppleWebKit/537.36 (KHTML, like Gecko) Chrome/126.0.0.0 Safari/537.36" version="24.6.5" etag="kg7jPxCLbpZU7e-MirEf" type="device">
  <diagram id="FDJiafE5__rO-4gfpb5Q" name="Page-1">
    <mxGraphModel dx="578" dy="1556" grid="1" gridSize="10" guides="1" tooltips="1" connect="1" arrows="1" fold="1" page="1" pageScale="1" pageWidth="827" pageHeight="1169" math="0" shadow="0">
      <root>
        <mxCell id="0" />
        <mxCell id="1" parent="0" />
        <mxCell id="-hBy_0kxWT6jmgFaGC4m-3" value="" style="edgeStyle=orthogonalEdgeStyle;rounded=0;orthogonalLoop=1;jettySize=auto;html=1;" edge="1" parent="1" source="-hBy_0kxWT6jmgFaGC4m-1" target="-hBy_0kxWT6jmgFaGC4m-2">
          <mxGeometry relative="1" as="geometry" />
        </mxCell>
        <mxCell id="-hBy_0kxWT6jmgFaGC4m-1" value="&lt;font size=&quot;1&quot;&gt;Create Record&lt;/font&gt;" style="rounded=1;whiteSpace=wrap;html=1;" vertex="1" parent="1">
          <mxGeometry x="118.75" y="-1160" width="80" height="20" as="geometry" />
        </mxCell>
        <mxCell id="-hBy_0kxWT6jmgFaGC4m-5" value="" style="edgeStyle=orthogonalEdgeStyle;rounded=0;orthogonalLoop=1;jettySize=auto;html=1;" edge="1" parent="1" source="-hBy_0kxWT6jmgFaGC4m-2" target="-hBy_0kxWT6jmgFaGC4m-4">
          <mxGeometry relative="1" as="geometry" />
        </mxCell>
        <mxCell id="-hBy_0kxWT6jmgFaGC4m-2" value="&lt;font size=&quot;1&quot;&gt;Inisialisasi Nilai Status&lt;/font&gt;&lt;div&gt;&lt;font size=&quot;1&quot;&gt;Inisialisasi Pesan Status&lt;/font&gt;&lt;/div&gt;" style="rounded=1;whiteSpace=wrap;html=1;" vertex="1" parent="1">
          <mxGeometry x="98.75" y="-1120" width="120" height="30" as="geometry" />
        </mxCell>
        <mxCell id="-hBy_0kxWT6jmgFaGC4m-7" value="" style="edgeStyle=orthogonalEdgeStyle;rounded=0;orthogonalLoop=1;jettySize=auto;html=1;" edge="1" parent="1" source="-hBy_0kxWT6jmgFaGC4m-4" target="-hBy_0kxWT6jmgFaGC4m-6">
          <mxGeometry relative="1" as="geometry" />
        </mxCell>
        <mxCell id="-hBy_0kxWT6jmgFaGC4m-4" value="&lt;font size=&quot;1&quot;&gt;Pada Saat dipasang ,Cek Token Pada LocalStorage&lt;/font&gt;" style="rounded=1;whiteSpace=wrap;html=1;" vertex="1" parent="1">
          <mxGeometry x="98.75" y="-1070" width="120" height="30" as="geometry" />
        </mxCell>
        <mxCell id="-hBy_0kxWT6jmgFaGC4m-9" value="" style="edgeStyle=orthogonalEdgeStyle;rounded=0;orthogonalLoop=1;jettySize=auto;html=1;" edge="1" parent="1" source="-hBy_0kxWT6jmgFaGC4m-6" target="-hBy_0kxWT6jmgFaGC4m-8">
          <mxGeometry relative="1" as="geometry" />
        </mxCell>
        <mxCell id="-hBy_0kxWT6jmgFaGC4m-10" value="No" style="edgeLabel;html=1;align=center;verticalAlign=middle;resizable=0;points=[];" vertex="1" connectable="0" parent="-hBy_0kxWT6jmgFaGC4m-9">
          <mxGeometry x="-0.5217" y="-1" relative="1" as="geometry">
            <mxPoint as="offset" />
          </mxGeometry>
        </mxCell>
        <mxCell id="-hBy_0kxWT6jmgFaGC4m-12" value="" style="edgeStyle=orthogonalEdgeStyle;rounded=0;orthogonalLoop=1;jettySize=auto;html=1;" edge="1" parent="1" source="-hBy_0kxWT6jmgFaGC4m-6" target="-hBy_0kxWT6jmgFaGC4m-11">
          <mxGeometry relative="1" as="geometry" />
        </mxCell>
        <mxCell id="-hBy_0kxWT6jmgFaGC4m-13" value="Yes" style="edgeLabel;html=1;align=center;verticalAlign=middle;resizable=0;points=[];" vertex="1" connectable="0" parent="-hBy_0kxWT6jmgFaGC4m-12">
          <mxGeometry x="0.3067" y="1" relative="1" as="geometry">
            <mxPoint x="-1" y="-6" as="offset" />
          </mxGeometry>
        </mxCell>
        <mxCell id="-hBy_0kxWT6jmgFaGC4m-6" value="&lt;font style=&quot;font-size: 11px;&quot;&gt;Apakah Token Ada di Localstorage&lt;/font&gt;" style="rhombus;whiteSpace=wrap;html=1;" vertex="1" parent="1">
          <mxGeometry x="108.75" y="-1020" width="100" height="100" as="geometry" />
        </mxCell>
        <mxCell id="-hBy_0kxWT6jmgFaGC4m-8" value="&lt;font size=&quot;1&quot;&gt;Arahkah ke Laman Login&lt;/font&gt;" style="rounded=1;whiteSpace=wrap;html=1;" vertex="1" parent="1">
          <mxGeometry x="242.75" y="-982.5" width="120" height="25" as="geometry" />
        </mxCell>
        <mxCell id="-hBy_0kxWT6jmgFaGC4m-15" value="" style="edgeStyle=orthogonalEdgeStyle;rounded=0;orthogonalLoop=1;jettySize=auto;html=1;" edge="1" parent="1" source="-hBy_0kxWT6jmgFaGC4m-11" target="-hBy_0kxWT6jmgFaGC4m-14">
          <mxGeometry relative="1" as="geometry" />
        </mxCell>
        <mxCell id="-hBy_0kxWT6jmgFaGC4m-11" value="&lt;font size=&quot;1&quot;&gt;Tambahkan Listener Untuk Menangani Nilai Input&lt;/font&gt;" style="rounded=1;whiteSpace=wrap;html=1;" vertex="1" parent="1">
          <mxGeometry x="93.75" y="-880" width="130" height="30" as="geometry" />
        </mxCell>
        <mxCell id="-hBy_0kxWT6jmgFaGC4m-17" value="" style="edgeStyle=orthogonalEdgeStyle;rounded=0;orthogonalLoop=1;jettySize=auto;html=1;" edge="1" parent="1" source="-hBy_0kxWT6jmgFaGC4m-14" target="-hBy_0kxWT6jmgFaGC4m-16">
          <mxGeometry relative="1" as="geometry" />
        </mxCell>
        <mxCell id="-hBy_0kxWT6jmgFaGC4m-14" value="&lt;font size=&quot;1&quot;&gt;Pada Waktu Pengiriman Form, Cegah (Tindakan Default)&lt;/font&gt;" style="rounded=1;whiteSpace=wrap;html=1;" vertex="1" parent="1">
          <mxGeometry x="81.25" y="-830" width="155" height="30" as="geometry" />
        </mxCell>
        <mxCell id="-hBy_0kxWT6jmgFaGC4m-19" value="" style="edgeStyle=orthogonalEdgeStyle;rounded=0;orthogonalLoop=1;jettySize=auto;html=1;" edge="1" parent="1" source="-hBy_0kxWT6jmgFaGC4m-16" target="-hBy_0kxWT6jmgFaGC4m-18">
          <mxGeometry relative="1" as="geometry" />
        </mxCell>
        <mxCell id="-hBy_0kxWT6jmgFaGC4m-16" value="&lt;font size=&quot;1&quot;&gt;Dapatkan token dari localStorage&lt;/font&gt;" style="rounded=1;whiteSpace=wrap;html=1;" vertex="1" parent="1">
          <mxGeometry x="81.25" y="-780" width="155" height="20" as="geometry" />
        </mxCell>
        <mxCell id="-hBy_0kxWT6jmgFaGC4m-22" value="" style="edgeStyle=orthogonalEdgeStyle;rounded=0;orthogonalLoop=1;jettySize=auto;html=1;" edge="1" parent="1" source="-hBy_0kxWT6jmgFaGC4m-18" target="-hBy_0kxWT6jmgFaGC4m-20">
          <mxGeometry relative="1" as="geometry" />
        </mxCell>
        <mxCell id="-hBy_0kxWT6jmgFaGC4m-18" value="&lt;div&gt;&lt;font size=&quot;1&quot;&gt;Buat permintaan POST ke backend |&lt;/font&gt;&lt;/div&gt;&lt;div&gt;&lt;font size=&quot;1&quot;&gt;| axios.post(..., headers: { Authorization: token })&lt;/font&gt;&lt;/div&gt;" style="rounded=1;whiteSpace=wrap;html=1;" vertex="1" parent="1">
          <mxGeometry x="50" y="-740" width="217.5" height="30" as="geometry" />
        </mxCell>
        <mxCell id="-hBy_0kxWT6jmgFaGC4m-24" value="" style="edgeStyle=orthogonalEdgeStyle;rounded=0;orthogonalLoop=1;jettySize=auto;html=1;" edge="1" parent="1" source="-hBy_0kxWT6jmgFaGC4m-20" target="-hBy_0kxWT6jmgFaGC4m-23">
          <mxGeometry relative="1" as="geometry" />
        </mxCell>
        <mxCell id="-hBy_0kxWT6jmgFaGC4m-25" value="No" style="edgeLabel;html=1;align=center;verticalAlign=middle;resizable=0;points=[];" vertex="1" connectable="0" parent="-hBy_0kxWT6jmgFaGC4m-24">
          <mxGeometry x="-0.437" relative="1" as="geometry">
            <mxPoint as="offset" />
          </mxGeometry>
        </mxCell>
        <mxCell id="-hBy_0kxWT6jmgFaGC4m-28" value="" style="edgeStyle=orthogonalEdgeStyle;rounded=0;orthogonalLoop=1;jettySize=auto;html=1;" edge="1" parent="1" source="-hBy_0kxWT6jmgFaGC4m-20" target="-hBy_0kxWT6jmgFaGC4m-27">
          <mxGeometry relative="1" as="geometry" />
        </mxCell>
        <mxCell id="-hBy_0kxWT6jmgFaGC4m-29" value="Yes" style="edgeLabel;html=1;align=center;verticalAlign=middle;resizable=0;points=[];" vertex="1" connectable="0" parent="-hBy_0kxWT6jmgFaGC4m-28">
          <mxGeometry x="0.24" y="1" relative="1" as="geometry">
            <mxPoint as="offset" />
          </mxGeometry>
        </mxCell>
        <mxCell id="-hBy_0kxWT6jmgFaGC4m-20" value="&lt;font style=&quot;font-size: 11px;&quot;&gt;Apakah Token Ada Pada Request?&lt;/font&gt;" style="rhombus;whiteSpace=wrap;html=1;" vertex="1" parent="1">
          <mxGeometry x="103.75" y="-690" width="110" height="110" as="geometry" />
        </mxCell>
        <mxCell id="-hBy_0kxWT6jmgFaGC4m-23" value="&lt;font style=&quot;font-size: 11px;&quot;&gt;Return &quot;Token Is Missing&quot;&lt;/font&gt;" style="rounded=1;whiteSpace=wrap;html=1;" vertex="1" parent="1">
          <mxGeometry x="248.75" y="-645" width="130" height="20" as="geometry" />
        </mxCell>
        <mxCell id="-hBy_0kxWT6jmgFaGC4m-31" value="" style="edgeStyle=orthogonalEdgeStyle;rounded=0;orthogonalLoop=1;jettySize=auto;html=1;" edge="1" parent="1" source="-hBy_0kxWT6jmgFaGC4m-27" target="-hBy_0kxWT6jmgFaGC4m-30">
          <mxGeometry relative="1" as="geometry" />
        </mxCell>
        <mxCell id="-hBy_0kxWT6jmgFaGC4m-32" value="No" style="edgeLabel;html=1;align=center;verticalAlign=middle;resizable=0;points=[];" vertex="1" connectable="0" parent="-hBy_0kxWT6jmgFaGC4m-31">
          <mxGeometry x="-0.5704" y="-2" relative="1" as="geometry">
            <mxPoint y="-2" as="offset" />
          </mxGeometry>
        </mxCell>
        <mxCell id="-hBy_0kxWT6jmgFaGC4m-34" value="" style="edgeStyle=orthogonalEdgeStyle;rounded=0;orthogonalLoop=1;jettySize=auto;html=1;" edge="1" parent="1" source="-hBy_0kxWT6jmgFaGC4m-27" target="-hBy_0kxWT6jmgFaGC4m-33">
          <mxGeometry relative="1" as="geometry" />
        </mxCell>
        <mxCell id="-hBy_0kxWT6jmgFaGC4m-35" value="Yes" style="edgeLabel;html=1;align=center;verticalAlign=middle;resizable=0;points=[];" vertex="1" connectable="0" parent="-hBy_0kxWT6jmgFaGC4m-34">
          <mxGeometry x="0.2933" relative="1" as="geometry">
            <mxPoint y="-6" as="offset" />
          </mxGeometry>
        </mxCell>
        <mxCell id="-hBy_0kxWT6jmgFaGC4m-27" value="&lt;div&gt;&lt;span style=&quot;font-size: 11px;&quot;&gt;Decode Token&lt;/span&gt;&lt;/div&gt;&lt;div&gt;&lt;span style=&quot;font-size: 11px;&quot;&gt;&amp;nbsp;jwt.decode(token, Secret_Key)&lt;/span&gt;&lt;/div&gt;" style="rhombus;whiteSpace=wrap;html=1;" vertex="1" parent="1">
          <mxGeometry x="103.75" y="-550" width="110" height="110" as="geometry" />
        </mxCell>
        <mxCell id="-hBy_0kxWT6jmgFaGC4m-30" value="&lt;font style=&quot;font-size: 11px;&quot;&gt;Return &quot;Token Tidak Valid&quot;&lt;/font&gt;" style="rounded=1;whiteSpace=wrap;html=1;" vertex="1" parent="1">
          <mxGeometry x="248.75" y="-505" width="140" height="20" as="geometry" />
        </mxCell>
        <mxCell id="-hBy_0kxWT6jmgFaGC4m-37" value="" style="edgeStyle=orthogonalEdgeStyle;rounded=0;orthogonalLoop=1;jettySize=auto;html=1;" edge="1" parent="1" source="-hBy_0kxWT6jmgFaGC4m-33" target="-hBy_0kxWT6jmgFaGC4m-36">
          <mxGeometry relative="1" as="geometry" />
        </mxCell>
        <mxCell id="-hBy_0kxWT6jmgFaGC4m-33" value="&lt;font style=&quot;font-size: 11px;&quot;&gt;Get Data JSON dari Request ||&amp;nbsp;request.get_json(force=True)&amp;nbsp;&lt;/font&gt;" style="rounded=1;whiteSpace=wrap;html=1;" vertex="1" parent="1">
          <mxGeometry x="73.75" y="-400" width="170" height="30" as="geometry" />
        </mxCell>
        <mxCell id="-hBy_0kxWT6jmgFaGC4m-40" value="" style="edgeStyle=orthogonalEdgeStyle;rounded=0;orthogonalLoop=1;jettySize=auto;html=1;" edge="1" parent="1" source="-hBy_0kxWT6jmgFaGC4m-36" target="-hBy_0kxWT6jmgFaGC4m-38">
          <mxGeometry relative="1" as="geometry" />
        </mxCell>
        <mxCell id="-hBy_0kxWT6jmgFaGC4m-36" value="&lt;font style=&quot;font-size: 11px;&quot;&gt;Validasi Field yang Diperlukan jika Field tidak ada dalam data&lt;/font&gt;" style="rounded=1;whiteSpace=wrap;html=1;" vertex="1" parent="1">
          <mxGeometry x="73.75" y="-350" width="170" height="30" as="geometry" />
        </mxCell>
        <mxCell id="-hBy_0kxWT6jmgFaGC4m-42" value="" style="edgeStyle=orthogonalEdgeStyle;rounded=0;orthogonalLoop=1;jettySize=auto;html=1;" edge="1" parent="1" source="-hBy_0kxWT6jmgFaGC4m-38" target="-hBy_0kxWT6jmgFaGC4m-41">
          <mxGeometry relative="1" as="geometry" />
        </mxCell>
        <mxCell id="-hBy_0kxWT6jmgFaGC4m-38" value="&lt;font style=&quot;font-size: 11px;&quot;&gt;Persiapkan Data Input Untuk Prediksi (np.array)&lt;/font&gt;" style="rounded=1;whiteSpace=wrap;html=1;" vertex="1" parent="1">
          <mxGeometry x="73.75" y="-300" width="170" height="30" as="geometry" />
        </mxCell>
        <mxCell id="-hBy_0kxWT6jmgFaGC4m-44" value="" style="edgeStyle=orthogonalEdgeStyle;rounded=0;orthogonalLoop=1;jettySize=auto;html=1;" edge="1" parent="1" source="-hBy_0kxWT6jmgFaGC4m-41" target="-hBy_0kxWT6jmgFaGC4m-43">
          <mxGeometry relative="1" as="geometry" />
        </mxCell>
        <mxCell id="-hBy_0kxWT6jmgFaGC4m-41" value="&lt;div&gt;&lt;span style=&quot;font-size: 11px;&quot;&gt;Memprediksi Kemungkinan Terkena Diabetes |&lt;/span&gt;&lt;/div&gt;&lt;div&gt;&lt;span style=&quot;font-size: 11px;&quot;&gt;| Menggunakan Model Yang Telah Dibuat&lt;/span&gt;&lt;/div&gt;" style="rounded=1;whiteSpace=wrap;html=1;" vertex="1" parent="1">
          <mxGeometry x="41.25" y="-250" width="235" height="30" as="geometry" />
        </mxCell>
        <mxCell id="-hBy_0kxWT6jmgFaGC4m-46" value="" style="edgeStyle=orthogonalEdgeStyle;rounded=0;orthogonalLoop=1;jettySize=auto;html=1;" edge="1" parent="1" source="-hBy_0kxWT6jmgFaGC4m-43" target="-hBy_0kxWT6jmgFaGC4m-45">
          <mxGeometry relative="1" as="geometry" />
        </mxCell>
        <mxCell id="-hBy_0kxWT6jmgFaGC4m-43" value="&lt;div&gt;&lt;span style=&quot;font-size: 11px;&quot;&gt;Persiapan Response Data Berupa Probabilitas&lt;/span&gt;&lt;/div&gt;" style="rounded=1;whiteSpace=wrap;html=1;" vertex="1" parent="1">
          <mxGeometry x="41.25" y="-200" width="235" height="20" as="geometry" />
        </mxCell>
        <mxCell id="-hBy_0kxWT6jmgFaGC4m-48" value="" style="edgeStyle=orthogonalEdgeStyle;rounded=0;orthogonalLoop=1;jettySize=auto;html=1;" edge="1" parent="1" source="-hBy_0kxWT6jmgFaGC4m-45" target="-hBy_0kxWT6jmgFaGC4m-47">
          <mxGeometry relative="1" as="geometry" />
        </mxCell>
        <mxCell id="-hBy_0kxWT6jmgFaGC4m-45" value="&lt;div&gt;&lt;span style=&quot;font-size: 11px;&quot;&gt;Menyimpan Hasil Prediksi ke Database(db.Session)&lt;/span&gt;&lt;/div&gt;" style="rounded=1;whiteSpace=wrap;html=1;" vertex="1" parent="1">
          <mxGeometry x="30" y="-160" width="257.5" height="20" as="geometry" />
        </mxCell>
        <mxCell id="-hBy_0kxWT6jmgFaGC4m-54" value="" style="edgeStyle=orthogonalEdgeStyle;rounded=0;orthogonalLoop=1;jettySize=auto;html=1;" edge="1" parent="1" source="-hBy_0kxWT6jmgFaGC4m-47" target="-hBy_0kxWT6jmgFaGC4m-53">
          <mxGeometry relative="1" as="geometry" />
        </mxCell>
        <mxCell id="-hBy_0kxWT6jmgFaGC4m-47" value="&lt;span style=&quot;font-size: 11px;&quot;&gt;Return Data&amp;nbsp;&lt;/span&gt;&lt;span style=&quot;font-size: 11px;&quot;&gt;Response&lt;/span&gt;&lt;span style=&quot;font-size: 11px;&quot;&gt;&amp;nbsp;ke Dalam Format JSON&lt;/span&gt;" style="rounded=1;whiteSpace=wrap;html=1;" vertex="1" parent="1">
          <mxGeometry x="39.370000000000005" y="-120" width="238.75" height="20" as="geometry" />
        </mxCell>
        <mxCell id="-hBy_0kxWT6jmgFaGC4m-56" value="" style="edgeStyle=orthogonalEdgeStyle;rounded=0;orthogonalLoop=1;jettySize=auto;html=1;" edge="1" parent="1" source="-hBy_0kxWT6jmgFaGC4m-53" target="-hBy_0kxWT6jmgFaGC4m-55">
          <mxGeometry relative="1" as="geometry" />
        </mxCell>
        <mxCell id="-hBy_0kxWT6jmgFaGC4m-57" value="No" style="edgeLabel;html=1;align=center;verticalAlign=middle;resizable=0;points=[];" vertex="1" connectable="0" parent="-hBy_0kxWT6jmgFaGC4m-56">
          <mxGeometry x="-0.5208" y="2" relative="1" as="geometry">
            <mxPoint x="-1" y="2" as="offset" />
          </mxGeometry>
        </mxCell>
        <mxCell id="-hBy_0kxWT6jmgFaGC4m-59" value="" style="edgeStyle=orthogonalEdgeStyle;rounded=0;orthogonalLoop=1;jettySize=auto;html=1;" edge="1" parent="1" source="-hBy_0kxWT6jmgFaGC4m-53" target="-hBy_0kxWT6jmgFaGC4m-58">
          <mxGeometry relative="1" as="geometry" />
        </mxCell>
        <mxCell id="-hBy_0kxWT6jmgFaGC4m-60" value="Yes" style="edgeLabel;html=1;align=center;verticalAlign=middle;resizable=0;points=[];" vertex="1" connectable="0" parent="-hBy_0kxWT6jmgFaGC4m-59">
          <mxGeometry x="-0.4588" relative="1" as="geometry">
            <mxPoint as="offset" />
          </mxGeometry>
        </mxCell>
        <mxCell id="-hBy_0kxWT6jmgFaGC4m-53" value="&lt;font style=&quot;font-size: 11px;&quot;&gt;Apakah Request Berhasil&lt;/font&gt;" style="rhombus;whiteSpace=wrap;html=1;" vertex="1" parent="1">
          <mxGeometry x="108.75" y="-80" width="100" height="100" as="geometry" />
        </mxCell>
        <mxCell id="-hBy_0kxWT6jmgFaGC4m-55" value="&lt;span style=&quot;font-size: 11px;&quot;&gt;setErrors(kesalahan.respon&lt;/span&gt;&lt;div&gt;&lt;span style=&quot;font-size: 11px;&quot;&gt;.data.kesalahan)&lt;/span&gt;&lt;/div&gt;" style="rounded=1;whiteSpace=wrap;html=1;" vertex="1" parent="1">
          <mxGeometry x="242.75" y="-45" width="176.25" height="30" as="geometry" />
        </mxCell>
        <mxCell id="-hBy_0kxWT6jmgFaGC4m-63" value="" style="edgeStyle=orthogonalEdgeStyle;rounded=0;orthogonalLoop=1;jettySize=auto;html=1;" edge="1" parent="1" source="-hBy_0kxWT6jmgFaGC4m-58" target="-hBy_0kxWT6jmgFaGC4m-61">
          <mxGeometry relative="1" as="geometry" />
        </mxCell>
        <mxCell id="-hBy_0kxWT6jmgFaGC4m-58" value="&lt;span style=&quot;font-size: 11px;&quot;&gt;Set Pesan Dengan Hasil Prediksi&amp;nbsp;&lt;/span&gt;&lt;span style=&quot;background-color: initial; font-size: 11px;&quot;&gt;(setMessage(`Hasil Prediksi: |&lt;/span&gt;&lt;div&gt;&lt;span style=&quot;font-size: 11px;&quot;&gt;| ${response.data.probability}%`))&lt;/span&gt;&lt;/div&gt;" style="rounded=1;whiteSpace=wrap;html=1;" vertex="1" parent="1">
          <mxGeometry x="43.43" y="56" width="230.63" height="44" as="geometry" />
        </mxCell>
        <mxCell id="-hBy_0kxWT6jmgFaGC4m-66" value="" style="edgeStyle=orthogonalEdgeStyle;rounded=0;orthogonalLoop=1;jettySize=auto;html=1;" edge="1" parent="1" source="-hBy_0kxWT6jmgFaGC4m-61" target="-hBy_0kxWT6jmgFaGC4m-64">
          <mxGeometry relative="1" as="geometry" />
        </mxCell>
        <mxCell id="-hBy_0kxWT6jmgFaGC4m-61" value="Hapus errors :setErrors({})" style="rounded=1;whiteSpace=wrap;html=1;" vertex="1" parent="1">
          <mxGeometry x="70.46" y="120" width="176.56" height="20" as="geometry" />
        </mxCell>
        <mxCell id="-hBy_0kxWT6jmgFaGC4m-64" value="End" style="rounded=1;whiteSpace=wrap;html=1;" vertex="1" parent="1">
          <mxGeometry x="70.47" y="160" width="176.56" height="20" as="geometry" />
        </mxCell>
      </root>
    </mxGraphModel>
  </diagram>
</mxfile>
